<svg class="w-[110px] xs:w-[160px]" xmlns="http://www.w3.org/2000/svg" width="201" height="28" viewBox="0 0 201 28" fill="none"><path fill-rule="evenodd" clip-rule="evenodd" d="M0.786593 18.9505C0.417401 18.0065 0.150701 17.0119 0 15.9802H27.44C27.2893 17.0119 27.0226 18.0065 26.6534 18.9505C24.6469 24.0814 19.6128 27.72 13.72 27.72C7.82721 27.72 2.79315 24.0814 0.786593 18.9505ZM13.72 24.7497C9.52614 24.7497 5.88472 22.3958 4.07506 18.9505H23.3649C21.5553 22.3958 17.9139 24.7497 13.72 24.7497ZM26.5972 8.90807C26.9782 9.85106 27.2566 10.8457 27.4186 11.8784H0.0214227C0.183409 10.8457 0.461771 9.85106 0.842827 8.90807C2.88599 3.8519 7.88151 0.280029 13.72 0.280029C19.5585 0.280029 24.554 3.8519 26.5972 8.90807ZM23.2893 8.90807H4.15068C5.98492 5.53991 9.5839 3.25034 13.72 3.25034C17.8561 3.25034 21.4551 5.53991 23.2893 8.90807ZM144.57 3.0464V6.17456H140.426V3.0464H144.57ZM140.701 9.02832H144.268V22.666H140.701V9.02832ZM100.655 22.9678C99.283 22.9678 98.0391 22.6751 96.9232 22.0898C95.8256 21.4861 94.9567 20.6537 94.3164 19.5927C93.6761 18.5134 93.356 17.2695 93.356 15.8609C93.356 14.4157 93.667 13.1626 94.289 12.1016C94.9292 11.0406 95.7982 10.2174 96.8958 9.632C97.9934 9.02832 99.2465 8.72648 100.655 8.72648C101.881 8.72648 102.923 8.90941 103.783 9.27528C104.643 9.64115 105.338 10.1534 105.869 10.8119C106.399 11.4522 106.783 12.2022 107.021 13.062C107.03 13.0933 107.04 13.1246 107.049 13.1561V3.54032H110.616V22.666H107.296C107.241 22.2452 107.186 21.7056 107.131 21.047C107.076 20.3702 107.049 19.7391 107.049 19.1537V18.2387C107.04 18.2693 107.03 18.2999 107.021 18.3305C106.765 19.1537 106.372 19.922 105.841 20.6354C105.311 21.3306 104.616 21.8977 103.756 22.3367C102.896 22.7575 101.862 22.9678 100.655 22.9678ZM106.417 18.1384C106.838 17.4798 107.049 16.7207 107.049 15.8609C107.049 14.9279 106.829 14.1413 106.39 13.501C105.969 12.8425 105.366 12.3394 104.579 11.9918C103.811 11.6443 102.887 11.4705 101.808 11.4705C100.289 11.4705 99.1093 11.8729 98.2678 12.6778C97.4263 13.4827 97.0055 14.5438 97.0055 15.8609C97.0055 16.739 97.2068 17.5073 97.6092 18.1658C98.0117 18.8061 98.5696 19.3092 99.283 19.675C100.015 20.0409 100.856 20.2238 101.808 20.2238C102.887 20.2238 103.82 20.0409 104.606 19.675C105.393 19.3092 105.997 18.797 106.417 18.1384ZM37.0395 16.6841H40.7439C40.8171 17.306 41.1006 17.8731 41.5946 18.3854C42.1068 18.8793 42.7745 19.2726 43.5977 19.5653C44.4209 19.8397 45.3447 19.9769 46.3691 19.9769C47.3021 19.9769 48.0704 19.8763 48.6741 19.675C49.2778 19.4738 49.7259 19.1903 50.0186 18.8244C50.3113 18.4585 50.4577 18.0195 50.4577 17.5073C50.4577 17.0134 50.2747 16.6383 49.9089 16.3822C49.543 16.1078 48.9668 15.8883 48.1802 15.7237C47.3935 15.5407 46.36 15.3578 45.0794 15.1749C44.0733 15.0285 43.1221 14.8273 42.2257 14.5712C41.3293 14.2968 40.5336 13.9492 39.8384 13.5285C39.1616 13.1077 38.6219 12.5955 38.2194 11.9918C37.8353 11.3699 37.6432 10.6381 37.6432 9.79664C37.6432 8.75392 37.9359 7.83925 38.5213 7.05264C39.125 6.26603 40.0122 5.6532 41.183 5.21416C42.3537 4.77512 43.7898 4.5556 45.491 4.5556C48.0521 4.5556 50.0186 5.1044 51.3906 6.202C52.7809 7.28131 53.4578 8.77221 53.4212 10.6747H49.854C49.7808 9.59541 49.3235 8.81795 48.482 8.34232C47.6588 7.86669 46.6161 7.62888 45.3538 7.62888C44.1831 7.62888 43.2135 7.80267 42.4452 8.15024C41.6952 8.49781 41.3202 9.09235 41.3202 9.93384C41.3202 10.2631 41.4116 10.5558 41.5946 10.8119C41.7775 11.0497 42.0885 11.2601 42.5275 11.443C42.9666 11.626 43.5611 11.7998 44.3111 11.9644C45.0611 12.129 45.9941 12.2937 47.11 12.4583C48.1527 12.6047 49.0948 12.8059 49.9363 13.062C50.7961 13.2998 51.5278 13.6199 52.1315 14.0224C52.7535 14.4066 53.2291 14.9005 53.5584 15.5042C53.8877 16.1078 54.0523 16.8487 54.0523 17.7268C54.0523 18.8061 53.7688 19.7482 53.2017 20.5531C52.6529 21.3397 51.7931 21.9526 50.6223 22.3916C49.4698 22.8306 47.9698 23.0502 46.1222 23.0502C44.805 23.0502 43.6434 22.913 42.6373 22.6386C41.6311 22.3459 40.7622 21.9617 40.0305 21.4861C39.2988 21.0104 38.7042 20.4891 38.2469 19.922C37.7896 19.3549 37.4603 18.7878 37.259 18.2207C37.0761 17.6536 37.0029 17.1414 37.0395 16.6841ZM62.8972 22.9678C61.5435 22.9678 60.3087 22.6751 59.1928 22.0898C58.0952 21.4861 57.2171 20.6537 56.5586 19.5927C55.9183 18.5134 55.5982 17.2695 55.5982 15.8609C55.5982 14.4157 55.9274 13.1626 56.586 12.1016C57.2446 11.0406 58.1318 10.2174 59.2477 9.632C60.3819 9.02832 61.6624 8.72648 63.0893 8.72648C64.6625 8.72648 65.9248 9.04661 66.876 9.68688C67.8455 10.3089 68.5498 11.1595 68.9889 12.2388C69.1048 12.5238 69.2054 12.8176 69.2907 13.1205V9.02832H72.8579V22.666H69.5377L69.4554 22.1446C69.4188 21.7788 69.3822 21.3214 69.3456 20.7726C69.309 20.2238 69.2907 19.6842 69.2907 19.1537V18.2387C69.2817 18.2693 69.2726 18.2999 69.2633 18.3305C69.0072 19.1537 68.6139 19.922 68.0834 20.6354C67.5529 21.3306 66.8577 21.8977 65.9979 22.3367C65.1381 22.7575 64.1046 22.9678 62.8972 22.9678ZM68.6596 18.1384C69.0803 17.4798 69.2907 16.7207 69.2907 15.8609C69.2907 14.9279 69.0712 14.1413 68.6322 13.501C68.2114 12.8425 67.6077 12.3486 66.8211 12.0193C66.0528 11.6717 65.129 11.4979 64.0497 11.4979C62.5313 11.4979 61.3514 11.9004 60.5099 12.7053C59.6684 13.4919 59.2477 14.5438 59.2477 15.8609C59.2477 16.739 59.4489 17.5073 59.8514 18.1658C60.2538 18.8061 60.8118 19.3092 61.5252 19.675C62.2569 20.0409 63.0984 20.2238 64.0497 20.2238C65.129 20.2238 66.0619 20.0409 66.8486 19.675C67.6352 19.3092 68.2389 18.797 68.6596 18.1384ZM79.1048 9.02832H75.5376V22.666H79.1048V14.5545C79.2453 14.2121 79.4557 13.8793 79.7359 13.5559C80.2115 12.9888 80.8335 12.5223 81.6018 12.1565C82.3702 11.7906 83.2299 11.6077 84.1812 11.6077C85.4434 11.6077 86.349 11.8821 86.8978 12.4309C87.4648 12.9614 87.7484 13.8029 87.7484 14.9554V22.666H91.3156V14.3242C91.3156 13.3547 91.1692 12.5223 90.8765 11.8272C90.5839 11.1138 90.1723 10.5284 89.6417 10.071C89.1112 9.61371 88.4893 9.27528 87.7758 9.05576C87.0624 8.83624 86.2849 8.72648 85.4434 8.72648C84.4739 8.72648 83.6049 8.87283 82.8366 9.16552C82.0683 9.45821 81.4006 9.86067 80.8335 10.3729C80.2847 10.8668 79.8457 11.4156 79.5164 12.0193C79.3482 12.3277 79.211 12.6409 79.1048 12.9589V9.02832ZM131.167 18.6675L127.851 9.02832H123.763L120.3 18.6802L116.601 9.02832H112.677L118.522 22.666H121.869L125.784 13.1523L129.58 22.666H132.928L138.937 9.02832H135.013L131.167 18.6675ZM162.312 20.361C162.989 19.5012 163.373 18.4768 163.465 17.2878H160.199C159.906 18.239 159.349 18.9707 158.525 19.483C157.72 19.9952 156.678 20.2513 155.397 20.2513C154.446 20.2513 153.577 20.0958 152.79 19.7848C152.004 19.4555 151.382 18.9707 150.924 18.3305C150.467 17.6719 150.238 16.8579 150.238 15.8883C150.238 14.9005 150.467 14.0864 150.924 13.4462C151.4 12.7876 152.022 12.2937 152.79 11.9644C153.577 11.6351 154.446 11.4705 155.397 11.4705C156.586 11.4705 157.602 11.7266 158.443 12.2388C159.284 12.751 159.861 13.4645 160.172 14.3791H163.437C163.327 13.1901 162.934 12.1748 162.257 11.3333C161.599 10.4918 160.693 9.85152 159.541 9.41248C158.388 8.95515 157.007 8.72648 155.397 8.72648C153.714 8.72648 152.205 9.00088 150.87 9.54968C149.552 10.0985 148.51 10.9034 147.741 11.9644C146.991 13.0254 146.616 14.3334 146.616 15.8883C146.616 17.4433 146.991 18.7512 147.741 19.8122C148.51 20.855 149.552 21.6507 150.87 22.1995C152.205 22.73 153.714 22.9953 155.397 22.9953C157.007 22.9953 158.397 22.7758 159.568 22.3367C160.739 21.8794 161.653 21.2208 162.312 20.361ZM177.995 22.666V15.1749C177.995 14.4249 177.867 13.8029 177.611 13.309C177.355 12.815 176.943 12.44 176.376 12.1839C175.827 11.9278 175.087 11.7998 174.154 11.7998C173.257 11.7998 172.443 11.9735 171.712 12.3211C170.98 12.6504 170.385 13.0894 169.928 13.6382C169.674 13.9332 169.482 14.2395 169.352 14.5571V22.666H165.784V3.54032H169.352V12.9446C169.458 12.6362 169.595 12.3277 169.763 12.0193C170.093 11.4156 170.532 10.8668 171.08 10.3729C171.629 9.87896 172.288 9.48565 173.056 9.19296C173.843 8.88197 174.721 8.72648 175.69 8.72648C176.532 8.72648 177.309 8.83624 178.023 9.05576C178.736 9.25699 179.358 9.57712 179.889 10.0162C180.419 10.4552 180.831 11.004 181.123 11.6626C181.416 12.3028 181.562 13.062 181.562 13.9401V22.666H177.995ZM200.143 18.1384H196.686C196.466 18.7604 195.973 19.2726 195.204 19.675C194.454 20.0592 193.512 20.2513 192.378 20.2513C191.353 20.2513 190.466 20.0866 189.716 19.7574C188.984 19.4281 188.399 18.9799 187.96 18.4128C187.539 17.8457 187.283 17.2146 187.192 16.5194H200.198C200.29 14.745 200.043 13.2907 199.457 12.1565C198.89 11.004 198.012 10.1442 196.823 9.57712C195.634 9.01003 194.143 8.72648 192.35 8.72648C190.594 8.72648 189.058 9.01003 187.741 9.57712C186.442 10.1442 185.426 10.9674 184.695 12.0467C183.963 13.1077 183.597 14.3883 183.597 15.8883C183.597 17.3884 183.972 18.6689 184.722 19.7299C185.472 20.7909 186.515 21.605 187.85 22.1721C189.186 22.7209 190.722 22.9953 192.46 22.9953C194.015 22.9953 195.332 22.7849 196.412 22.3642C197.491 21.9434 198.342 21.3672 198.963 20.6354C199.604 19.9037 199.997 19.0714 200.143 18.1384ZM188.975 12.3211C189.799 11.7357 190.869 11.443 192.186 11.443C193.521 11.443 194.573 11.7174 195.341 12.2662C196.128 12.7967 196.567 13.5193 196.659 14.434H187.384C187.622 13.5925 188.152 12.8882 188.975 12.3211Z" fill="black"></path></svg>